<svg
    xmlns="http://www.w3.org/2000/svg"
    viewBox="0 0 240 240"
    id="vector">
    <path
        id="path"
        d="M 142.478 134.115 C 153 129.809 162.011 122.474 168.362 113.044 C 174.713 103.614 178.124 92.507 178.159 81.138 C 178.159 49.427 152.132 23.726 120.011 23.726 C 87.89 23.726 61.84 49.426 61.84 81.138 C 61.877 92.509 65.29 103.618 71.645 113.048 C 78 122.478 87.014 129.812 97.54 134.115 C 87.014 138.415 77.999 145.747 71.644 155.175 C 65.289 164.604 61.876 175.712 61.84 187.082 L 61.84 216.275 L 178.159 216.275 L 178.159 187.082 C 178.125 175.714 174.715 164.608 168.363 155.179 C 162.012 145.751 153.001 138.418 142.478 134.115 Z"
        fill="#efefef"/>
</svg>
