<?xml version="1.0" standalone="no"?>
<!DOCTYPE svg PUBLIC "-//W3C//DTD SVG 20010904//EN"
 "http://www.w3.org/TR/2001/REC-SVG-20010904/DTD/svg10.dtd">
<svg version="1.0" xmlns="http://www.w3.org/2000/svg"
 width="376.000000pt" height="214.000000pt" viewBox="0 0 376.000000 214.000000"
 preserveAspectRatio="xMidYMid meet">

<g transform="translate(0.000000,214.000000) scale(0.100000,-0.100000)"
fill="black" stroke="none">
<path d="M1520 2125 c0 -13 48 -15 375 -15 327 0 375 2 375 15 0 13 -48 15
-375 15 -327 0 -375 -2 -375 -15z"/>
<path d="M510 1695 c0 -13 47 -15 365 -15 318 0 365 2 365 15 0 13 -47 15
-365 15 -318 0 -365 -2 -365 -15z"/>
<path d="M2530 1695 c0 -13 47 -15 365 -15 318 0 365 2 365 15 0 13 -47 15
-365 15 -318 0 -365 -2 -365 -15z"/>
<path d="M925 1159 c-22 -5 -109 -23 -192 -40 l-153 -32 0 -46 c1 -25 7 -73
15 -106 12 -47 15 -148 15 -477 l0 -418 1265 0 1265 0 0 419 0 419 25 56 c24
54 35 156 18 156 -5 0 -95 18 -201 40 l-193 40 -912 -1 c-501 -1 -930 -5 -952
-10z"/>
</g>
</svg>
