<?xml version="1.0" standalone="no"?>
<!DOCTYPE svg PUBLIC "-//W3C//DTD SVG 20010904//EN"
 "http://www.w3.org/TR/2001/REC-SVG-20010904/DTD/svg10.dtd">
<svg version="1.0" xmlns="http://www.w3.org/2000/svg"
 width="376.000000pt" height="214.000000pt" viewBox="0 0 376.000000 214.000000"
 preserveAspectRatio="xMidYMid meet">

<g transform="translate(0.000000,214.000000) scale(0.100000,-0.100000)"
fill="black" stroke="none">
<path d="M0 1945 c0 -13 48 -15 370 -15 322 0 370 2 370 15 0 13 -48 15 -370
15 -322 0 -370 -2 -370 -15z"/>
<path d="M3020 1945 c0 -13 48 -15 370 -15 322 0 370 2 370 15 0 13 -48 15
-370 15 -322 0 -370 -2 -370 -15z"/>
<path d="M1500 1675 c0 -13 48 -15 375 -15 327 0 375 2 375 15 0 13 -48 15
-375 15 -327 0 -375 -2 -375 -15z"/>
<path d="M310 1115 c0 -55 1 -56 105 -188 l105 -132 142 -53 143 -53 1085 1
1085 0 125 46 125 47 123 151 c113 140 122 154 122 193 l0 43 -1580 0 -1580 0
0 -55z"/>
</g>
</svg>
