<?xml version="1.0" standalone="no"?>
<!DOCTYPE svg PUBLIC "-//W3C//DTD SVG 20010904//EN"
 "http://www.w3.org/TR/2001/REC-SVG-20010904/DTD/svg10.dtd">
<svg version="1.0" xmlns="http://www.w3.org/2000/svg"
 width="376.000000pt" height="214.000000pt" viewBox="0 0 376.000000 214.000000"
 preserveAspectRatio="xMidYMid meet">

<g transform="translate(0.000000,214.000000) scale(0.100000,-0.100000)"
fill="black" stroke="none">
<path d="M40 1725 c0 -13 44 -15 335 -15 291 0 335 2 335 15 0 13 -44 15 -335
15 -291 0 -335 -2 -335 -15z"/>
<path d="M3060 1725 c0 -13 44 -15 335 -15 291 0 335 2 335 15 0 13 -44 15
-335 15 -291 0 -335 -2 -335 -15z"/>
<path d="M350 585 l0 -585 1535 0 1535 0 0 585 0 585 -1535 0 -1535 0 0 -585z"/>
</g>
</svg>
