<?xml version="1.0" standalone="no"?>
<!DOCTYPE svg PUBLIC "-//W3C//DTD SVG 20010904//EN"
 "http://www.w3.org/TR/2001/REC-SVG-20010904/DTD/svg10.dtd">
<svg version="1.0" xmlns="http://www.w3.org/2000/svg"
 width="376.000000pt" height="214.000000pt" viewBox="0 0 376.000000 214.000000"
 preserveAspectRatio="xMidYMid meet">

<g transform="translate(0.000000,214.000000) scale(0.100000,-0.100000)"
fill="black" stroke="none">
<path d="M110 1615 c0 -13 44 -15 340 -15 296 0 340 2 340 15 0 13 -44 15
-340 15 -296 0 -340 -2 -340 -15z"/>
<path d="M2980 1615 c0 -13 44 -15 340 -15 296 0 340 2 340 15 0 13 -44 15
-340 15 -296 0 -340 -2 -340 -15z"/>
<path d="M350 1081 l0 -89 154 -164 154 -165 218 -141 219 -142 792 0 793 0
217 143 218 143 153 163 152 164 0 88 0 89 -1535 0 -1535 0 0 -89z"/>
</g>
</svg>
