<?xml version="1.0" standalone="no"?>
<!DOCTYPE svg PUBLIC "-//W3C//DTD SVG 20010904//EN"
 "http://www.w3.org/TR/2001/REC-SVG-20010904/DTD/svg10.dtd">
<svg version="1.0" xmlns="http://www.w3.org/2000/svg"
 width="376.000000pt" height="214.000000pt" viewBox="0 0 376.000000 214.000000"
 preserveAspectRatio="xMidYMid meet">

<g transform="translate(0.000000,214.000000) scale(0.100000,-0.100000)"
fill="black" stroke="none">
<path d="M820 1670 c0 -6 105 -10 295 -10 190 0 295 4 295 10 0 6 -105 10
-295 10 -190 0 -295 -4 -295 -10z"/>
<path d="M2360 1670 c0 -6 105 -10 295 -10 190 0 295 4 295 10 0 6 -105 10
-295 10 -190 0 -295 -4 -295 -10z"/>
<path d="M90 1143 c0 -16 18 -83 40 -149 l41 -122 203 -76 202 -76 280 0 279
0 69 -176 c39 -96 73 -177 77 -180 4 -2 56 -9 116 -15 166 -16 153 -8 153 -89
l0 -70 335 0 335 0 0 70 c0 81 -13 73 153 89 60 6 112 13 116 15 4 3 38 84 77
180 l69 176 279 0 280 0 202 76 203 76 41 122 c22 66 40 133 40 149 l0 27
-1795 0 -1795 0 0 -27z"/>
</g>
</svg>
