<?xml version="1.0" standalone="no"?>
<!DOCTYPE svg PUBLIC "-//W3C//DTD SVG 20010904//EN"
 "http://www.w3.org/TR/2001/REC-SVG-20010904/DTD/svg10.dtd">
<svg version="1.0" xmlns="http://www.w3.org/2000/svg"
 width="376.000000pt" height="214.000000pt" viewBox="0 0 376.000000 214.000000"
 preserveAspectRatio="xMidYMid meet">

<g transform="translate(0.000000,214.000000) scale(0.100000,-0.100000)"
fill="black" stroke="none">
<path d="M1630 1695 c0 -13 35 -15 255 -15 220 0 255 2 255 15 0 13 -35 15
-255 15 -220 0 -255 -2 -255 -15z"/>
<path d="M890 1589 c-118 -15 -225 -28 -237 -28 -24 -1 -33 -31 -10 -31 18 0
412 48 455 55 30 6 48 37 20 34 -7 -1 -110 -14 -228 -30z"/>
<path d="M2640 1606 c0 -18 5 -19 269 -51 241 -29 231 -29 231 -10 0 8 -6 15
-13 15 -18 0 -412 48 -454 55 -25 5 -33 2 -33 -9z"/>
<path d="M1047 1159 c-34 -8 -205 -44 -379 -80 l-318 -64 0 -37 0 -36 348
-137 c191 -76 396 -157 457 -181 108 -44 110 -44 233 -44 l124 0 50 45 50 45
273 0 273 0 50 -45 50 -45 123 0 124 0 445 176 c245 97 449 180 453 184 4 4
10 22 13 41 l6 34 -269 54 c-147 30 -315 65 -373 78 -105 23 -105 23 -888 26
-681 2 -790 0 -845 -14z"/>
</g>
</svg>
